<?xml version="1.0" encoding="UTF-8"?>
<svg id="Capa_1" data-name="Capa 1" xmlns="http://www.w3.org/2000/svg" viewBox="0 0 440.16 228.9">
  <defs>
    <style>
      .cls-1 {
        fill: #311ac3;
        stroke: #000;
      }

      .cls-1, .cls-2 {
        stroke-miterlimit: 10;
        stroke-width: 5.67px;
      }

      .cls-2 {
        fill: #fff;
        stroke: #05ffc5;
      }
    </style>
  </defs>
  <g>
    <polygon class="cls-1" points="19.74 5.12 3.42 5.12 2.83 5.12 2.83 226.06 3.42 226.06 19.74 226.06 19.74 5.12"/>
    <polygon class="cls-1" points="130.98 5.12 125.28 5.12 125.28 29.36 69.07 29.36 69.07 93.63 112.42 93.63 112.42 128.02 69.07 128.02 69.07 203.95 125.87 203.95 125.87 226.06 130.98 226.06 194.76 115.59 130.98 5.12"/>
  </g>
  <g>
    <polygon class="cls-2" points="261.88 2.83 245.55 2.83 244.97 2.83 244.97 223.77 245.55 223.77 261.88 223.77 261.88 2.83"/>
    <polygon class="cls-2" points="373.11 2.83 367.41 2.83 367.41 27.07 311.2 27.07 311.2 91.35 354.55 91.35 354.55 125.73 311.2 125.73 311.2 201.66 368.01 201.66 368.01 223.77 373.11 223.77 436.89 113.3 373.11 2.83"/>
  </g>
</svg>